<?xml version="1.0" encoding="UTF-8"?>
<svg version="1.1" xmlns="http://www.w3.org/2000/svg" width="96" height="96">
<path d="M0 0 C8.80288754 6.34043826 15.4186507 14.72648904 17.58203125 25.4921875 C18.92007691 37.90936834 17.85729499 48.88109459 10.39453125 59.2421875 C3.58210875 67.3274193 -4.72289951 73.55522767 -15.48876953 74.71533203 C-28.40007937 75.61089799 -39.16843729 74.04490094 -49.3515625 65.46484375 C-57.86959925 57.33325857 -62.42046403 48.68416257 -62.88867188 36.85693359 C-63.04371176 24.34263074 -60.22647828 14.71931927 -51.41796875 5.4921875 C-37.63784493 -7.66275112 -16.31305228 -10.17259803 0 0 Z " fill="#F5BE00" transform="translate(70.41796875,13.5078125)"/>
<path d="M0 0 C8.80288754 6.34043826 15.4186507 14.72648904 17.58203125 25.4921875 C18.92007691 37.90936834 17.85729499 48.88109459 10.39453125 59.2421875 C3.58210875 67.3274193 -4.72289951 73.55522767 -15.48876953 74.71533203 C-28.40007937 75.61089799 -39.16843729 74.04490094 -49.3515625 65.46484375 C-57.86959925 57.33325857 -62.42046403 48.68416257 -62.88867188 36.85693359 C-63.04371176 24.34263074 -60.22647828 14.71931927 -51.41796875 5.4921875 C-37.63784493 -7.66275112 -16.31305228 -10.17259803 0 0 Z M-50.9453125 15.48046875 C-55.87357182 22.21270628 -57.16950753 30.28198084 -56.41796875 38.4921875 C-54.89583499 47.80652893 -51.26702394 55.69176689 -43.7265625 61.6015625 C-34.38693406 67.75173959 -26.57471475 69.46609129 -15.41796875 68.4921875 C-7.18618797 66.58551983 0.36917691 61.83332474 5.40625 55.02734375 C11.13562236 45.80208318 12.90685728 37.65793339 11.15234375 26.84375 C8.83678496 17.78162487 3.95036328 10.73032387 -3.79296875 5.4921875 C-21.0204346 -4.510098 -38.63009511 0.75270308 -50.9453125 15.48046875 Z " fill="#FED600" transform="translate(70.41796875,13.5078125)"/>
<path d="M0 0 C0.66 0 1.32 0 2 0 C2 1.32 2 2.64 2 4 C4.31 4.33 6.62 4.66 9 5 C9.33 6.65 9.66 8.3 10 10 C9.01 10.33 8.02 10.66 7 11 C6.34 10.67 5.68 10.34 5 10 C2.6670134 9.95977609 0.33293334 9.95679753 -2 10 C-2.33 11.32 -2.66 12.64 -3 14 C-1.60974609 14.72316406 -1.60974609 14.72316406 -0.19140625 15.4609375 C1.01838743 16.0986582 2.22801426 16.73669548 3.4375 17.375 C4.04916016 17.69210938 4.66082031 18.00921875 5.29101562 18.3359375 C9.88671875 20.7734375 9.88671875 20.7734375 11 23 C11.58001036 30.19212843 11.58001036 30.19212843 9.25 33.4375 C7.08065587 34.94398898 5.5934165 35.62951193 3 36 C2.67 37.32 2.34 38.64 2 40 C1.34 40 0.68 40 0 40 C-0.33 38.68 -0.66 37.36 -1 36 C-2.134375 35.690625 -3.26875 35.38125 -4.4375 35.0625 C-8 34 -8 34 -9 33 C-9 31.35 -9 29.7 -9 28 C-4.71 28.33 -0.42 28.66 4 29 C4 27.68 4 26.36 4 25 C2.96939453 24.51080078 2.96939453 24.51080078 1.91796875 24.01171875 C1.01691406 23.57472656 0.11585937 23.13773438 -0.8125 22.6875 C-1.70582031 22.25824219 -2.59914063 21.82898438 -3.51953125 21.38671875 C-5.8442022 20.08709956 -7.39236343 19.1087181 -9 17 C-9.76595745 10.10638298 -9.76595745 10.10638298 -7.3125 6.5625 C-4.81374721 4.87415352 -2.97752446 4.33083605 0 4 C0 2.68 0 1.36 0 0 Z " fill="#FDDF17" transform="translate(47,28)"/>
</svg>
